HIERARCHY
ROOT Hips
{
	OFFSET -14.64140 90.27770 -84.91600
	CHANNELS 6 Xposition Yposition Zposition Zrotation Xrotation Yrotation
	JOINT Spine
	{
		OFFSET 0.00000 13.20850 -1.60436
		CHANNELS 3 Zrotation Xrotation Yrotation
		JOINT Spine1
		{
			OFFSET 0.00000 8.61716 0.00000
			CHANNELS 3 Zrotation Xrotation Yrotation
			JOINT Spine2
			{
				OFFSET 0.00000 8.61717 0.00000
				CHANNELS 3 Zrotation Xrotation Yrotation
				JOINT Spine3
				{
					OFFSET 0.00000 8.61717 0.00000
					CHANNELS 3 Zrotation Xrotation Yrotation
					JOINT Neck
					{
						OFFSET 0.00000 11.07920 1.10792
						CHANNELS 3 Zrotation Xrotation Yrotation
						JOINT Neck1
						{
							OFFSET 0.00000 7.08032 0.00000
							CHANNELS 3 Zrotation Xrotation Yrotation
							JOINT Head
							{
								OFFSET 0.00000 7.08031 0.00000
								CHANNELS 3 Zrotation Xrotation Yrotation
								End site
								{
									OFFSET 0.00000 0.00000 0.00000
								}
							}
						}
					}
					JOINT RightShoulder
					{
						OFFSET -0.01000 7.91373 5.19711
						CHANNELS 3 Zrotation Xrotation Yrotation
						JOINT RightArm
						{
							OFFSET -18.41580 0.00000 0.00000
							CHANNELS 3 Zrotation Xrotation Yrotation
							JOINT RightForeArm
							{
								OFFSET -29.11090 0.00000 0.00000
								CHANNELS 3 Zrotation Xrotation Yrotation
								JOINT RightHand
								{
									OFFSET -24.65040 0.00000 0.00000
									CHANNELS 3 Zrotation Xrotation Yrotation
									JOINT RightHandThumb1
									{
										OFFSET -5.35114 -0.85590 3.97906
										CHANNELS 3 Zrotation Xrotation Yrotation
										JOINT RightHandThumb2
										{
											OFFSET -4.52789 0.00000 0.00000
											CHANNELS 3 Zrotation Xrotation Yrotation
											JOINT RightHandThumb3
											{
												OFFSET -2.46976 0.00000 0.00000
												CHANNELS 3 Zrotation Xrotation Yrotation
												End site
												{
													OFFSET 0.00000 0.00000 0.00000
												}
											}
										}
									}
									JOINT RightHandIndex1
									{
										OFFSET -14.26970 0.00000 2.88139
										CHANNELS 3 Zrotation Xrotation Yrotation
										JOINT RightHandIndex2
										{
											OFFSET -5.48836 0.00000 0.00000
											CHANNELS 3 Zrotation Xrotation Yrotation
											JOINT RightHandIndex3
											{
												OFFSET -3.01859 0.00000 0.00000
												CHANNELS 3 Zrotation Xrotation Yrotation
												End site
												{
													OFFSET 0.00000 0.00000 0.00000
												}
											}
										}
									}
									JOINT RightHandMiddle1
									{
										OFFSET -14.26970 0.00000 -0.09147
										CHANNELS 3 Zrotation Xrotation Yrotation
										JOINT RightHandMiddle2
										{
											OFFSET -6.17441 0.00000 0.00000
											CHANNELS 3 Zrotation Xrotation Yrotation
											JOINT RightHandMiddle3
											{
												OFFSET -3.56743 0.00000 0.00000
												CHANNELS 3 Zrotation Xrotation Yrotation
												End site
												{
													OFFSET 0.00000 0.00000 0.00000
												}
											}
										}
									}
									JOINT RightHandRing1
									{
										OFFSET -12.69180 0.00000 -3.06433
										CHANNELS 3 Zrotation Xrotation Yrotation
										JOINT RightHandRing2
										{
											OFFSET -5.62556 0.00000 0.00000
											CHANNELS 3 Zrotation Xrotation Yrotation
											JOINT RightHandRing3
											{
												OFFSET -3.56744 0.00000 0.00000
												CHANNELS 3 Zrotation Xrotation Yrotation
												End site
												{
													OFFSET 0.00000 0.00000 0.00000
												}
											}
										}
									}
									JOINT RightHandPinky1
									{
										OFFSET -11.11390 0.00000 -6.03719
										CHANNELS 3 Zrotation Xrotation Yrotation
										JOINT RightHandPinky2
										{
											OFFSET -4.52789 0.00000 0.00000
											CHANNELS 3 Zrotation Xrotation Yrotation
											JOINT RightHandPinky3
											{
												OFFSET -2.46976 0.00000 0.00000
												CHANNELS 3 Zrotation Xrotation Yrotation
												End site
												{
													OFFSET 0.00000 0.00000 0.00000
												}
											}
										}
									}
								}
							}
						}
					}
					JOINT LeftShoulder
					{
						OFFSET 0.01000 7.91373 5.19711
						CHANNELS 3 Zrotation Xrotation Yrotation
						JOINT LeftArm
						{
							OFFSET 18.41580 0.00000 0.00000
							CHANNELS 3 Zrotation Xrotation Yrotation
							JOINT LeftForeArm
							{
								OFFSET 29.11090 0.00000 0.00000
								CHANNELS 3 Zrotation Xrotation Yrotation
								JOINT LeftHand
								{
									OFFSET 24.65040 0.00000 0.00000
									CHANNELS 3 Zrotation Xrotation Yrotation
									JOINT LeftHandThumb1
									{
										OFFSET 5.35114 -0.85590 3.97906
										CHANNELS 3 Zrotation Xrotation Yrotation
										JOINT LeftHandThumb2
										{
											OFFSET 4.52789 0.00000 0.00000
											CHANNELS 3 Zrotation Xrotation Yrotation
											JOINT LeftHandThumb3
											{
												OFFSET 2.46977 0.00000 0.00000
												CHANNELS 3 Zrotation Xrotation Yrotation
												End site
												{
													OFFSET 0.00000 0.00000 0.00000
												}
											}
										}
									}
									JOINT LeftHandIndex1
									{
										OFFSET 14.26970 0.00000 2.88139
										CHANNELS 3 Zrotation Xrotation Yrotation
										JOINT LeftHandIndex2
										{
											OFFSET 5.48836 0.00000 0.00000
											CHANNELS 3 Zrotation Xrotation Yrotation
											JOINT LeftHandIndex3
											{
												OFFSET 3.01859 0.00000 0.00000
												CHANNELS 3 Zrotation Xrotation Yrotation
												End site
												{
													OFFSET 0.00000 0.00000 0.00000
												}
											}
										}
									}
									JOINT LeftHandMiddle1
									{
										OFFSET 14.26970 0.00000 -0.09147
										CHANNELS 3 Zrotation Xrotation Yrotation
										JOINT LeftHandMiddle2
										{
											OFFSET 6.17440 0.00000 0.00000
											CHANNELS 3 Zrotation Xrotation Yrotation
											JOINT LeftHandMiddle3
											{
												OFFSET 3.56744 0.00000 0.00000
												CHANNELS 3 Zrotation Xrotation Yrotation
												End site
												{
													OFFSET 0.00000 0.00000 0.00000
												}
											}
										}
									}
									JOINT LeftHandRing1
									{
										OFFSET 12.69180 0.00000 -3.06433
										CHANNELS 3 Zrotation Xrotation Yrotation
										JOINT LeftHandRing2
										{
											OFFSET 5.62556 0.00000 0.00000
											CHANNELS 3 Zrotation Xrotation Yrotation
											JOINT LeftHandRing3
											{
												OFFSET 3.56744 0.00000 0.00000
												CHANNELS 3 Zrotation Xrotation Yrotation
												End site
												{
													OFFSET 0.00000 0.00000 0.00000
												}
											}
										}
									}
									JOINT LeftHandPinky1
									{
										OFFSET 11.11390 0.00000 -6.03719
										CHANNELS 3 Zrotation Xrotation Yrotation
										JOINT LeftHandPinky2
										{
											OFFSET 4.52789 0.00000 0.00000
											CHANNELS 3 Zrotation Xrotation Yrotation
											JOINT LeftHandPinky3
											{
												OFFSET 2.46976 0.00000 0.00000
												CHANNELS 3 Zrotation Xrotation Yrotation
												End site
												{
													OFFSET 0.00000 0.00000 0.00000
												}
											}
										}
									}
								}
							}
						}
					}
					JOINT pCube4
					{
						OFFSET 0.00000 10.91090 1.10792
						CHANNELS 3 Zrotation Xrotation Yrotation
						End site
						{
							OFFSET 0.00000 0.00000 0.00000
						}
					}
				}
			}
		}
	}
	JOINT RightUpLeg
	{
		OFFSET -9.98441 0.00000 0.00000
		CHANNELS 3 Zrotation Xrotation Yrotation
		JOINT RightLeg
		{
			OFFSET 0.00000 -42.11790 0.00000
			CHANNELS 3 Zrotation Xrotation Yrotation
			JOINT RightFoot
			{
				OFFSET 0.00000 -45.00020 -0.00001
				CHANNELS 3 Zrotation Xrotation Yrotation
				JOINT RightForeFoot
				{
					OFFSET 0.00000 -3.74820 0.00000
					CHANNELS 3 Zrotation Xrotation Yrotation
					JOINT RightToeBase
					{
						OFFSET 0.00000 0.06325 14.43120
						CHANNELS 3 Zrotation Xrotation Yrotation
						End site
						{
							OFFSET 0.00000 0.00000 0.00000
						}
					}
				}
			}
		}
	}
	JOINT LeftUpLeg
	{
		OFFSET 9.98441 0.00000 0.00000
		CHANNELS 3 Zrotation Xrotation Yrotation
		JOINT LeftLeg
		{
			OFFSET 0.00000 -42.11800 0.00000
			CHANNELS 3 Zrotation Xrotation Yrotation
			JOINT LeftFoot
			{
				OFFSET 0.00000 -45.00070 0.00000
				CHANNELS 3 Zrotation Xrotation Yrotation
				JOINT LeftForeFoot
				{
					OFFSET 0.00000 -3.74824 0.00000
					CHANNELS 3 Zrotation Xrotation Yrotation
					JOINT LeftToeBase
					{
						OFFSET 0.00000 0.06325 14.43110
						CHANNELS 3 Zrotation Xrotation Yrotation
						End site
						{
							OFFSET 0.00000 0.00000 0.00000
						}
					}
				}
			}
		}
	}
}
MOTION
Frames: 4
Frame Time: 0.050000
0.022843656977722497 0.014645361679759595 -0.0019473400002445723 0.042445808502132705 0.0109650644826112 0.046092664287114955 -3.1506823591445983 -0.7454161484432181 -0.6914303840794743 -1.0378464663988043 3.640999159116713 0.4289656978439417 -1.243838438672935 -2.2300444045972463 -1.4091433270897102 -0.025493241087617788 0.23980597043036497 -0.872449665579107 -0.5990210923765735 13.318769364708936 1.8630138285423765 -0.05658948094069383 0.9600838165890023 2.455952888287214 -0.6052360652111377 -13.075143219729743 0.23356420894436825 -4.908025772726131 1.6781261783851904 -13.826102114102005 66.74642467244387 11.24004006334789 15.33172939276416 27.124102412792357 -0.9734528006937144 83.8297829381129 16.508804875049666 -0.45427701910821194 -3.170649138867233 4.523882498172964 -0.13772309721340165 -1.6389240967503718 -0.03029835220430087 0.040810489680170224 -56.2586854313476 0.04659765058387789 -0.03713388653325241 -56.25728402347769 -38.72344628130605 0.038992024224421794 0.0371102046765244 0.0125436015534999 0.0018914632383856534 -0.021872146399696743 -0.030119097789853142 -0.039018845724264964 -0.00959597474065677 -36.65132425696624 -0.03803845535783996 0.04751681439471187 0.0051285981531436695 -0.03504724805012056 -0.015726476856869304 0.04391044989515166 0.007997187878818089 -0.019381742168989843 -19.7113545507202 0.013604708481212181 0.04130855318057109 0.006012755286476516 0.013562531594004194 -0.02254844505963996 0.030755359492167723 -0.03675315901764383 -0.03603766196059783 24.087447351441327 -0.029259992526633104 -0.026660073882170166 28.892053864196996 -0.03151833687804505 -0.006659537629950898 28.895220187482565 0.02264628299846916 0.013080138998027738 7.298221397911973 1.5757151817586448 12.763963867297395 -67.97208689900727 5.644065491018774 -17.939001241049237 -22.228147827972602 -15.191219550775633 -49.06537495363797 -3.7535408489579 -0.32806349537998436 0.10289095515140177 -0.4390471312280146 0.05818045440453044 -8.081218247194958 -0.017136115851173375 0.01123266984164671 44.54395185476524 0.025273363734651784 -0.03858102256669949 44.55955330759526 12.506012091129309 0.02596252199931354 0.025011842519573935 -0.019478523601997182 -0.04687685601042952 0.016943254938040234 0.03501387795507673 0.0327539537918023 0.013228039756960396 11.153010671936071 0.02738578782580318 0.013892016515385868 -0.001818895503205687 -0.047123571346327206 -0.01894055146990642 -0.019108490444903602 0.017034172389190475 0.03615319087020853 4.765917318255874 0.004135018576451653 -0.01823808761110798 -0.0012259322094180332 0.006553324355192105 0.02213634849183309 -0.02542327316919367 0.04591664046790746 0.03565762665586326 -5.607469694063228 0.0030834251977262758 0.010412882975515857 -6.712319432683093 0.023890281757875206 0.003825700792516333 -6.699536377997187 -0.025152941287354798 -0.018479850580050892 0.003064436664701427 0.044093689149699536 -0.024172364362121206 8.088130095212613 3.446887247896186 -19.21467212532501 -0.03609725250188834 10.378001179838783 0.051965409856828695 -5.641236675723827 -15.629661328712384 3.1485267954617298 -0.008870318796041905 -0.022908319488135886 0.018127910704421796 -0.0195797169369669 4.679359734898741 -0.017710463330620246 12.425723466421521 -8.237270853053205 6.874122641506012 0.02444487846502026 46.35623665453967 0.03029674870529042 -4.3623865040928935 -14.727931099585145 -3.824341523001657 0.04071518869599346 -0.03965599947425176 0.04035946497280706 0.02818351546986345 -10.76482859798591 0.012064211935144268 
-0.0006618343443580478 -0.022485042869835492 0.036541182857026885 -0.04065584599895072 -0.007038433017902511 0.043737606062426715 -2.9723743946219208 -0.698678761753462 -0.7758969121824858 -1.0175275010425695 3.5960827013967323 0.33067607836984914 -1.20494410526236 -2.231121519201652 -1.8195659928472916 0.10189725445754962 0.2622304182877442 -0.9488608800686361 -0.7584777730206723 13.078408380337175 2.0039845433886194 -0.1742872462325717 0.6975805084147214 3.168512896519873 -0.7574011934240685 -13.40705369916163 0.3178499350014816 -4.739003970836707 1.6705629398691746 -14.25759313935199 67.07519184214961 9.539109651246056 12.250950094945429 28.692270365142498 -1.4171878120127634 85.92119913512661 15.89676130079547 -0.4175793674869682 -3.08112481388534 4.482379678152264 -0.16753222907908383 -1.5626549930513685 -0.025729567328530142 -0.0024950706209367905 -56.18463489358515 0.007508910802022549 -0.03650109137167962 -56.24970860525349 -38.76882151511263 -0.013626703188770625 0.03782977367213195 0.04704433217792569 0.004998184149830344 0.008796708855505082 0.015648166083537515 0.0029561232515688154 -0.04396462712433205 -36.68466221915235 -0.032824156245988 0.0044492219574325444 -0.017243320040768634 0.03124704184648783 0.012284716079069322 0.0470231245071487 0.024024952864577846 -0.004065516027145775 -19.74916105868906 -0.02304282965006889 -0.04815173658050115 0.0040321107987616595 0.007568698889165801 -0.005989294716898267 0.022803747103136488 0.044137800885180954 0.0077764117739654815 24.057111722361764 0.004212385158971608 -0.005305300021510986 28.906466012662662 0.04392580130800619 -0.048592792315690025 28.835489992141778 -0.015272884245232526 0.013734964078063221 7.841233175041829 1.6072936917111278 12.711549732431264 -68.45275210213543 2.3677867015696505 -18.73193315197435 -24.10916634199274 -15.575998234619876 -50.29220874495428 -1.6951084132498044 -0.32888796210103166 -0.3767141348294708 -0.5099760594668672 0.07300051189516153 -8.11392085709548 0.04223054437075177 -0.023355590593521252 44.573593688638745 -0.022979628448147448 -0.029897360734809916 44.58531835352014 12.492168430824119 0.017714167582251094 -0.0257000493972974 0.0019336995774155061 0.008524133293217846 0.04598031679072795 0.020576366299074854 0.0359661297405916 0.017723706003365532 11.127845871551617 0.047644098138787644 0.003235878303791424 0.02526844143215216 -0.02583851317853669 -0.03804313374199063 0.046867174886687145 -0.033141814691336986 -0.0228162518873328 4.811408733898777 -0.043481785819411214 0.034166297606004155 -0.019898495956099962 -0.0001512040351624369 0.015459014667748955 -0.013672597300205104 0.009143434687580443 -0.007924141603431363 -5.645176552467351 -0.03483951369917342 0.0076510426791549764 -6.706490994332015 -0.01120918603672905 0.0014606782975963655 -6.7064847640258805 -0.014963237800347777 -0.026120441934040187 0.02046175230492311 0.020221380130226264 0.028477640111199628 8.034892625367075 3.5036478436880496 -19.2241524238159 0.028532033898204488 10.418945599622475 0.006119369435382278 -5.582544623627968 -15.64605623421445 3.196020075334768 -0.031108127678237688 -0.002391905424230773 -0.04427445535634641 -0.012871898639822878 4.658374448496923 -0.026155485747609623 12.499173310246015 -8.227514291375007 6.8377143318095035 -0.019434480115762293 46.41572902124522 -0.010645937546657436 -4.3537779179442 -14.779130947471195 -3.832639000974622 -0.019902457792345358 0.03560950859651497 -0.02323975086572223 0.008992002893997876 -10.774295659161586 -0.0008205061322316755 
0.03437555318446748 0.0030217858552404595 0.014039568199096065 0.007179798418710046 0.0020147773269417607 0.013326239850120734 -2.761305906154946 -0.6361648631261664 -0.839491825307443 -1.0243621105381802 3.5655883714738352 0.3549473057085808 -1.0901363320322703 -2.1266156278797856 -2.26321983355462 0.24014388120970653 0.22860145278707558 -1.042747225176066 -0.8273506913804298 12.885941926152768 2.124203658282192 -0.2820124530487229 0.5162466911987951 3.762319783403397 -0.8796766423444646 -13.81536634015439 0.3067454929103098 -4.639072687251051 1.679822304320125 -14.63814908867831 67.74591488759918 8.51307546618367 9.089104693190443 29.259732651931692 -2.227989007258482 87.97352736574946 15.543142751256795 -0.4230073629564066 -2.9672356311739736 4.537721067923421 -0.1352704114210205 -1.6267546828506374 0.004820414472180472 -0.009277069528009392 -56.22841214599439 0.019488147729010027 0.02927289070329451 -56.23262033064693 -38.74600989278538 -0.018555539436866754 -0.015639451452510868 0.023986716839706577 -0.037405612866084126 0.0003718937850754257 0.024280800201694954 0.04747838337805633 0.0010537492238765545 -36.71549798168592 -0.02955144735937584 -0.022534277333767404 -0.027615525193117007 0.012637014479448708 -0.004204449203465189 0.04870721963326121 0.0318498368345758 3.646093728415073e-05 -19.72678599201124 -0.002185918414161795 -0.0005806628148678818 0.02757357910027236 -0.04658105901612248 0.00792369284683756 -0.03734161838103963 -0.037721195341855446 0.045390992465024926 24.02446451553195 0.0009634502696566475 0.03359273687138716 28.823350070600192 -0.022914667916504653 0.04925039296623805 28.881758854077773 -0.011541344977467345 -0.0003068603984704699 8.08680041577581 1.6303752958418976 12.76016676676185 -69.38942702817646 0.9163023987312285 -18.28157050778366 -25.507472718867 -15.255555156342263 -51.80522303298931 -0.23793563516033323 -0.24186882613538624 -0.7379766860993618 -0.4528142427873564 0.09842352440551316 -8.162036604792958 0.002483866676930056 0.016571650301397154 44.52899436257648 -0.02861568941634895 -0.022725338010805778 44.54588656259226 12.450033991004004 0.002897102942997203 0.020786265217971094 -0.002618561757774922 -0.020638602808674366 0.028691838262527275 -0.03982719232590118 -0.04887520257048201 0.029994041637791007 11.09487384163162 0.016272631338949874 0.001659538429864955 -0.04340110732657566 0.012835243759394068 -0.038741823487437155 -0.015274101199488405 0.020933069966991468 0.0189742817193144 4.775457874307032 -0.007870952954096337 0.009084895035994694 0.03430182612997543 -0.0024017967597858053 -0.018199316369230844 0.03890074248185243 0.049295333896451826 0.02725597967643089 -5.612762466682871 -0.039314283114040345 -0.006750794633191846 -6.744392733812914 0.0004586965066380175 -0.030842779881796005 -6.710805667096499 -0.006871504648880429 0.03453496107049985 -0.008176828447334838 -0.04558658851035681 0.023567664267128 8.028539972899033 3.446887487374251 -19.219758039311284 -0.005401428445567054 10.374454055959857 -0.018176864795292808 -5.668341751838437 -15.674901912659003 3.1718594628853984 -0.007032389354561325 0.04644300250151149 0.0048144618748151265 -0.03687121110784707 4.695006898096693 -0.024127619341184386 12.50544530130709 -8.26110262513497 6.907509560692617 -0.00854956691026801 46.38266928884497 -0.02237009950082887 -4.299401972581488 -14.752940224968771 -3.819280472923004 -0.041328468914361545 -0.014874498047153394 0.0006959977143343506 0.015065620054302934 -10.72742117993982 -0.01146486965363491 
-0.03765462499602937 -0.023169715510970215 -0.04753186368469003 -0.03948587526909168 0.009148821949336956 0.028298454239745693 -2.6419953038518296 -0.5952442466227583 -0.7933992516129771 -1.0168869776078042 3.6562844431833135 0.37372840665561335 -1.0955146697036482 -2.127259640758285 -2.4765236254500724 0.30392472453034153 0.2068940481174169 -1.009529338091888 -0.9222875938513105 12.752774639713493 2.1611510226734243 -0.2748421491541858 0.28524238079436237 4.1238102662923195 -0.9156254412751169 -14.206248009446467 0.3924000319432357 -4.645800757320094 1.6262511478901205 -15.07946423262466 68.4473563483566 8.266281410847068 6.213901328756709 28.549869165667246 -2.6404738543835076 89.25583987080708 15.590250769321818 -0.49813884284544485 -2.8644985565698318 4.567176916518126 -0.14420674240566053 -1.602677401056181 -0.008918507703683057 0.001962412614143183 -56.22654559448325 -0.022118201376830807 -0.008876904325247579 -56.230691737933554 -38.766411769334276 0.025741921750278403 0.032621595148687337 0.00039944904601030404 0.026475437096919817 -0.025029417477056108 -0.025910365596909273 0.04595974186686777 -0.04071179669884874 -36.65712563014642 0.007166835176754572 0.013859115153274044 -0.023428392824889743 -0.012351475521716044 0.009376107317837726 0.005313990802379058 0.0031227485974278076 0.04255037832092273 -19.7846048467464 0.02282295511894007 -0.0020243679884408327 0.01592292735338585 0.035927499030698244 0.032259717323249844 0.03711334712522612 0.022506477231509434 -0.04299818531984459 24.063517120909598 -0.020160489852316433 0.01179930315556947 28.8336874942981 -0.02160467637019843 0.04788854736434585 28.833593715327435 0.03800104545456026 0.04677589072294788 8.141509106787517 1.7315566288478017 12.90453469185168 -70.50416443198482 1.31309504410079 -16.7779049585718 -26.749947722873532 -14.257891003391608 -53.4275625433413 0.4617796895700158 -0.09045021373469173 -1.0203791796169226 -0.4978523736447263 0.11122097722698873 -8.085473099876568 0.020421879307302836 0.022815406774348262 44.590264001857165 -0.04268003398871052 0.002564757193199566 44.58013725527571 12.451702434096381 0.04963578437046133 -0.030243832789611742 0.049712732873446734 0.0324599089753318 0.03505154327650693 0.010148201288635191 0.03544404753624263 -0.006860113719197065 11.14144532222943 -0.004146980023584157 0.008001135835738247 -0.015940722301404118 -0.013374945477915814 0.033907369608216734 0.04082892834150621 0.013922732492177282 -0.028388359557653293 4.776752970269132 -0.009365685506383772 0.04145777098549747 0.001410122143641486 0.030452696802308735 0.03314286195091377 -0.0026521507936789384 0.02183992850444333 0.02232706056054011 -5.577293472074388 0.0008311997804105949 0.0381874944677802 -6.730429308643767 0.025426099950529916 -0.01589814296439976 -6.710719459563221 0.014818728674816104 0.04469565330956905 0.029288544648754734 0.04878126275119039 0.017438293691181148 8.019229784900313 3.4769308452520837 -19.23012284082677 -0.049882230518330135 10.378984876856563 0.008622989111844715 -5.656497818859834 -15.660578395806354 3.1430837067186523 -0.01760256582149771 0.0320845368522565 0.03264338487959263 0.03776862298170524 4.724228603879111 0.014950584644318622 12.460512309272342 -8.23592019976045 6.889837740761346 0.013823874700700876 46.36184507934643 -0.02804877289596203 -4.317212951788269 -14.76621229208308 -3.8049491473255554 -0.032534478236920815 0.0037891806729924444 -0.011878444327145979 -0.003176871496436838 -10.760397752148743 0.014990300485760628 
